<?xml version="1.0" standalone="no"?><!DOCTYPE svg PUBLIC "-//W3C//DTD SVG 1.1//EN" "http://www.w3.org/Graphics/SVG/1.1/DTD/svg11.dtd"><svg class="icon" width="64px" height="64.00px" viewBox="0 0 1024 1024" version="1.1" xmlns="http://www.w3.org/2000/svg"><path d="M548.608 256a36.544 36.544 0 0 0-73.152 0v292.608a36.48 36.48 0 0 0 73.152 0V256zM512 0a512 512 0 1 0 295.04 930.496c1.152-13.12 2.88-55.424-18.112-78.08a438.848 438.848 0 1 1 114.944-142.656c16.64 23.488 39.296 38.336 61.952 39.488A512 512 0 0 0 512 0z m0 658.24a36.608 36.608 0 0 0-36.544 36.608v36.544a36.608 36.608 0 0 0 73.088 0.064v-36.544A36.608 36.608 0 0 0 512 658.24z m0 0" fill="#f59a23" /></svg>